<svg width="180" height="204" viewBox="0 0 180 204" fill="none" xmlns="http://www.w3.org/2000/svg">
<path d="M161.5 22.5C118.84 28.6289 101.925 42.1454 94.5 58C104.824 25.5291 118.134 12.3579 161.5 2V22.5Z" fill="#D3D3D3" stroke="#D3D3D3" stroke-width="2"/>
<path d="M17 22.5C59.6602 28.6289 76.5753 42.1454 84 58C73.6758 25.5291 60.3659 12.3579 17 2V22.5Z" fill="#D3D3D3" stroke="#D3D3D3" stroke-width="2"/>
<path d="M82.5 78V201.5L56 184L35.5 173.75L6.5 163.5L2.88397 160L1 153.5V35.5C24.4417 38.3603 37.3976 41.6314 60 52L74.982 64L82.5 78Z" fill="#1494DB" stroke="#1494DB" stroke-width="2"/>
<path d="M97 77.5V201L123.5 183.5L144 173.25L173 163L176.616 159.5L178.5 153V35C155.058 37.8603 142.102 41.1314 119.5 51.5L104.518 63.5L97 77.5Z" fill="#1494DB" stroke="#1494DB" stroke-width="2"/>
</svg>
