<svg width="703" height="204" viewBox="0 0 703 204" fill="none" xmlns="http://www.w3.org/2000/svg">
<path d="M222.1 158V56H253.15C260.75 56 266.75 57.1 271.15 59.3C275.65 61.5 278.85 64.6 280.75 68.6C282.75 72.6 283.75 77.3 283.75 82.7V86.9C283.75 94.8 280.35 100.85 273.55 105.05C278.35 106.95 282 109.7 284.5 113.3C287 116.9 288.25 121.2 288.25 126.2V130.4C288.25 135.9 287.25 140.75 285.25 144.95C283.25 149.05 279.95 152.25 275.35 154.55C270.75 156.85 264.6 158 256.9 158H222.1ZM253.15 72.5H240.1V98H253.15C257.15 98 260.15 97.1 262.15 95.3C264.25 93.4 265.3 90.85 265.3 87.65V82.7C265.3 79.5 264.25 77 262.15 75.2C260.15 73.4 257.15 72.5 253.15 72.5ZM256.9 114.5H240.1V141.5H256.9C261.1 141.5 264.3 140.5 266.5 138.5C268.7 136.5 269.8 133.8 269.8 130.4V125.45C269.8 122.05 268.7 119.4 266.5 117.5C264.3 115.5 261.1 114.5 256.9 114.5ZM369.844 115.4V124.4C369.844 135 366.944 143.5 361.144 149.9C355.344 156.3 347.144 159.5 336.544 159.5C325.944 159.5 317.744 156.3 311.944 149.9C306.144 143.5 303.244 135 303.244 124.4V115.4C303.244 104.8 306.094 96.35 311.794 90.05C317.594 83.65 325.844 80.45 336.544 80.45C347.244 80.45 355.444 83.65 361.144 90.05C366.944 96.35 369.844 104.8 369.844 115.4ZM352.144 115.4C352.144 109.3 350.794 104.55 348.094 101.15C345.394 97.65 341.544 95.9 336.544 95.9C331.544 95.9 327.694 97.65 324.994 101.15C322.294 104.55 320.944 109.3 320.944 115.4V124.4C320.944 130.5 322.294 135.3 324.994 138.8C327.694 142.3 331.544 144.05 336.544 144.05C341.544 144.05 345.394 142.3 348.094 138.8C350.794 135.3 352.144 130.5 352.144 124.4V115.4ZM451.436 115.4V124.4C451.436 135 448.536 143.5 442.736 149.9C436.936 156.3 428.736 159.5 418.136 159.5C407.536 159.5 399.336 156.3 393.536 149.9C387.736 143.5 384.836 135 384.836 124.4V115.4C384.836 104.8 387.686 96.35 393.386 90.05C399.186 83.65 407.436 80.45 418.136 80.45C428.836 80.45 437.036 83.65 442.736 90.05C448.536 96.35 451.436 104.8 451.436 115.4ZM433.736 115.4C433.736 109.3 432.386 104.55 429.686 101.15C426.986 97.65 423.136 95.9 418.136 95.9C413.136 95.9 409.286 97.65 406.586 101.15C403.886 104.55 402.536 109.3 402.536 115.4V124.4C402.536 130.5 403.886 135.3 406.586 138.8C409.286 142.3 413.136 144.05 418.136 144.05C423.136 144.05 426.986 142.3 429.686 138.8C432.386 135.3 433.736 130.5 433.736 124.4V115.4ZM516.228 158L497.478 126.35C494.478 129.35 491.328 132.35 488.028 135.35V158H470.778V47H488.028V116.3C493.728 110.5 498.628 104.95 502.728 99.65C506.928 94.25 510.778 88.35 514.278 81.95H534.078C530.778 87.95 527.178 93.65 523.278 99.05C519.378 104.45 515.078 109.9 510.378 115.4L537.078 158H516.228ZM550.162 136.55V47H567.412V136.55C567.412 138.05 567.762 139.5 568.462 140.9C569.262 142.2 570.762 142.85 572.962 142.85H575.362V158.75H571.162C565.462 158.75 561.112 157.65 558.112 155.45C555.112 153.25 553.012 150.45 551.812 147.05C550.712 143.65 550.162 140.15 550.162 136.55ZM609.767 67.55H591.617V49.7H609.767V67.55ZM609.317 158H592.067V81.95H609.317V158ZM695.332 115.4V124.4C695.332 135 692.432 143.5 686.632 149.9C680.832 156.3 672.632 159.5 662.032 159.5C651.432 159.5 643.232 156.3 637.432 149.9C631.632 143.5 628.732 135 628.732 124.4V115.4C628.732 104.8 631.582 96.35 637.282 90.05C643.082 83.65 651.332 80.45 662.032 80.45C672.732 80.45 680.932 83.65 686.632 90.05C692.432 96.35 695.332 104.8 695.332 115.4ZM677.632 115.4C677.632 109.3 676.282 104.55 673.582 101.15C670.882 97.65 667.032 95.9 662.032 95.9C657.032 95.9 653.182 97.65 650.482 101.15C647.782 104.55 646.432 109.3 646.432 115.4V124.4C646.432 130.5 647.782 135.3 650.482 138.8C653.182 142.3 657.032 144.05 662.032 144.05C667.032 144.05 670.882 142.3 673.582 138.8C676.282 135.3 677.632 130.5 677.632 124.4V115.4Z" fill="white"/>
<path d="M161.5 22.5C118.84 28.6289 101.925 42.1454 94.5 58C104.824 25.5291 118.134 12.3579 161.5 2V22.5Z" fill="#D3D3D3" stroke="#D3D3D3" stroke-width="2"/>
<path d="M17 22.5C59.6602 28.6289 76.5753 42.1454 84 58C73.6758 25.5291 60.3659 12.3579 17 2V22.5Z" fill="#D3D3D3" stroke="#D3D3D3" stroke-width="2"/>
<path d="M82.5 78V201.5L56 184L35.5 173.75L6.5 163.5L2.88397 160L1 153.5V35.5C24.4417 38.3603 37.3976 41.6314 60 52L74.982 64L82.5 78Z" fill="#1494DB" stroke="#1494DB" stroke-width="2"/>
<path d="M97 77.5V201L123.5 183.5L144 173.25L173 163L176.616 159.5L178.5 153V35C155.058 37.8603 142.102 41.1314 119.5 51.5L104.518 63.5L97 77.5Z" fill="#1494DB" stroke="#1494DB" stroke-width="2"/>
</svg>
